HIERARCHY
ROOT Hips
{
  OFFSET 2.26061 22.2878 23.7974
  CHANNELS 6 Xposition Yposition Zposition Zrotation Xrotation Yrotation
  JOINT LeftUpLeg
  {
    OFFSET 8.64259 1.95398 -2.38835
    CHANNELS 3 Zrotation Xrotation Yrotation
    JOINT LeftLeg
    {
      OFFSET 43.7702 0 0
      CHANNELS 3 Zrotation Xrotation Yrotation
      JOINT LeftFoot
      {
        OFFSET 40.6238 0 0
        CHANNELS 3 Zrotation Xrotation Yrotation
        JOINT LeftToeBase
        {
          OFFSET 12.7242 0 0
          CHANNELS 3 Zrotation Xrotation Yrotation
          End Site
          {
            OFFSET 0 0 0
          }
        }
      }
    }
  }
  JOINT RightUpLeg
  {
    OFFSET -8.2249 1.95398 -2.59336
    CHANNELS 3 Zrotation Xrotation Yrotation
    JOINT RightLeg
    {
      OFFSET 43.5653 0 0
      CHANNELS 3 Zrotation Xrotation Yrotation
      JOINT RightFoot
      {
        OFFSET 40.6238 0 0
        CHANNELS 3 Zrotation Xrotation Yrotation
        JOINT RightToeBase
        {
          OFFSET 12.7242 0 0
          CHANNELS 3 Zrotation Xrotation Yrotation
          End Site
          {
            OFFSET 0 0 0
          }
        }
      }
    }
  }
  JOINT Spine
  {
    OFFSET 0.165834 0.87714 6.61349
    CHANNELS 3 Zrotation Xrotation Yrotation
    JOINT Spine1
    {
      OFFSET 7.38963 1.71661e-005 0
      CHANNELS 3 Zrotation Xrotation Yrotation
      JOINT Spine2
      {
        OFFSET 11.9445 1.14441e-005 0
        CHANNELS 3 Zrotation Xrotation Yrotation
        JOINT Spine3
        {
          OFFSET 14.7254 4.19617e-005 0
          CHANNELS 3 Zrotation Xrotation Yrotation
          JOINT Spine4
          {
            OFFSET 10.9679 0 0
            CHANNELS 3 Zrotation Xrotation Yrotation
            JOINT RightShoulder
            {
              OFFSET 2.46616 -1.6653 3.69651
              CHANNELS 3 Zrotation Xrotation Yrotation
              JOINT RightArm
              {
                OFFSET 13.0012 0 0
                CHANNELS 3 Zrotation Xrotation Yrotation
                JOINT RightForeArm
                {
                  OFFSET 28.7848 1.52588e-005 0
                  CHANNELS 3 Zrotation Xrotation Yrotation
                  JOINT RightHand
                  {
                    OFFSET 26.5688 1.52588e-005 0
                    CHANNELS 3 Zrotation Xrotation Yrotation
                    End Site
                    {
                      OFFSET 0 0 0
                    }
                  }
                }
              }
            }
            JOINT LeftShoulder
            {
              OFFSET 2.38034 -1.29275 -3.7523
              CHANNELS 3 Zrotation Xrotation Yrotation
              JOINT LeftArm
              {
                OFFSET 16.3182 6.10351e-005 0
                CHANNELS 3 Zrotation Xrotation Yrotation
                JOINT LeftForeArm
                {
                  OFFSET 27.0901 0 0
                  CHANNELS 3 Zrotation Xrotation Yrotation
                  JOINT LeftHand
                  {
                    OFFSET 24.5451 1.52588e-005 0
                    CHANNELS 3 Zrotation Xrotation Yrotation
                    End Site
                    {
                      OFFSET 0 0 0
                    }
                  }
                }
              }
            }
            JOINT Neck
            {
              OFFSET 5.0226 -0.0266342 0
              CHANNELS 3 Zrotation Xrotation Yrotation
              JOINT Head
              {
                OFFSET 6.69363 2.86102e-005 0
                CHANNELS 3 Zrotation Xrotation Yrotation
                End Site
                {
                  OFFSET 0 0 0
                }
              }
            }
          }
        }
      }
    }
  }
}
MOTION
Frames:	15
Frame Time:	0.0416667
-144.48 96.2171 -196.509 85.6216 -52.3199 87.2797 -173.523 8.02649 87.8304 -17.9635 11.2095 0.0516803 69.8856 9.53179 3.69479 33.5685 3.66182 3.28506 177.796 14.9009 94.2818 -19.2025 -4.99916 -2.67703 65.4439 -3.07056 -1.69561 26.4833 -0.0396518 -0.893585 -0.112842 7.23531 -90.0311 12.4032 -0.238897 -0.0348022 0.732323 -0.240234 -0.0242596 -21.803 -0.217398 -0.104991 -1.79034 -0.217414 -0.105001 92.928 -51.7253 -96.0196 24.0374 -5.68858 0.810421 -6.39589 -22.8382 -43.8605 -2.76761 -0.638468 5.94081 -104.486 -52.7274 58.7225 -17.3018 15.8675 -0.0881014 2.84645 10.4744 -35.8365 10.1846 0.944009 5.01231 10.0092 -4.37406 5.98024 -7.96536 -5.35273 -4.08887 
-144.843 96.3674 -197.474 86.0946 -52.3163 87.8472 -173.732 8.20126 87.7815 -17.814 13.5465 0.0661575 69.1947 9.58765 5.4093 33.9552 3.9406 4.75052 178.326 17.1251 94.5014 -25.4434 -5.97184 -3.04108 65.4695 -3.10135 -1.71171 34.839 0.354629 -3.1576 -0.185162 7.19426 -90.0386 12.4854 -0.386234 -0.0326489 0.814476 -0.387284 -0.015621 -21.7211 -0.358562 -0.14722 -1.70844 -0.358562 -0.147226 92.9235 -53.6062 -95.7074 22.3543 -5.25408 0.086913 -10.417 -26.6306 -44.5522 -2.21579 -0.653559 4.84071 -105.096 -53.0165 57.999 -16.1876 16.9188 -0.515248 2.59765 13.0665 -33.0838 8.29445 0.523032 2.22968 7.77522 -4.69228 7.32842 -6.25345 -5.82392 -5.99454 
-144.549 96.2332 -197.524 86.918 -51.6373 88.0134 -173.801 7.74345 87.1895 -18.5505 13.424 -0.0239877 70.9578 10.7923 5.48381 32.0653 2.273 5.62722 178.517 14.6091 93.7067 -25.1551 -9.14262 -3.81581 64.718 -3.05244 -1.71155 37.6531 0.36796 -3.77323 -0.236142 7.17483 -89.9979 12.5245 -0.468049 0.0582286 0.853644 -0.465028 0.0787549 -21.6822 -0.463901 -0.0851325 -1.66954 -0.463907 -0.0851453 92.886 -54.0519 -95.6896 22.0366 -6.1211 0.626399 -8.98122 -26.6125 -43.9877 -0.0134575 -0.513425 4.99987 -104.42 -52.9387 58.9006 -16.5577 17.3692 0.244183 2.43046 13.2462 -32.9941 7.95954 0.556487 2.78169 7.4436 -4.45015 6.80917 -6.0288 -5.49902 -5.26238 
-143.908 96.1107 -196.788 85.9455 -50.7638 86.5961 -173.959 7.29731 86.5035 -17.9905 13.2597 -0.14741 72.4575 12.1827 5.33029 31.7326 1.82975 8.03505 178.205 12.1619 93.0796 -21.2994 -9.37762 -4.21472 67.9659 -4.25482 -2.28913 37.9775 0.390369 -4.05745 -0.198265 7.01268 -89.9468 12.8488 -0.368131 0.150443 1.17788 -0.361165 0.16648 -21.3577 -0.396334 0.0328443 -1.34504 -0.396346 0.0328389 93.5893 -55.0477 -94.5037 21.2994 -6.26964 1.00393 -10.517 -29.6891 -43.6538 -0.920133 -0.613281 4.56078 -104.176 -53.494 59.459 -16.6251 17.05 0.663418 1.64452 13.0775 -31.2994 9.15487 0.675553 3.20192 7.24546 -4.01191 5.72501 -6.1311 -4.88473 -3.97727 
-143.009 96.114 -196.428 86.7987 -50.9929 87.4224 -174.17 6.15812 86.3048 -18.0424 13.0636 0.0890644 72.629 12.6244 5.69976 31.4671 1.59999 7.84106 178.002 10.8465 92.9547 -21.1237 -9.57739 -4.30352 68.9642 -4.58959 -2.43228 36.6729 0.369558 -5.3695 -0.100143 7.04663 -90.0226 12.7807 -0.20969 -0.020111 1.10971 -0.210372 -0.0108637 -21.4256 -0.193965 -0.0822035 -1.41292 -0.193947 -0.0821992 93.184 -54.0338 -95.2543 22.3889 -6.11845 1.77096 -10.0247 -28.5743 -42.826 -0.545409 -0.594298 5.52388 -104.019 -53.8813 59.8295 -17.8127 16.0523 0.924756 2.1935 13.9336 -30.1347 9.20565 0.603716 2.46975 6.98497 -2.87372 5.0146 -6.23284 -3.65799 -2.26884 
-142.049 95.8998 -196.024 86.5681 -49.6946 87.6068 -174.409 6.30622 86.3752 -18.8186 13.6781 0.364604 72.6457 12.6694 5.2292 30.4599 0.710421 7.57584 178.013 11.2719 93.064 -22.7567 -6.53632 -4.16784 69.1943 -4.61204 -2.42453 37.2869 0.394983 -2.07667 -0.193385 7.10023 -90.0827 12.6732 -0.423456 -0.115393 1.00231 -0.42813 -0.0966507 -21.5332 -0.369213 -0.237332 -1.5206 -0.369204 -0.237334 93.3742 -53.8876 -94.9975 22.1397 -6.13019 2.34021 -8.68761 -26.1642 -43.8117 -0.500214 -0.5258 4.67746 -104.753 -53.645 58.7276 -17.8408 17.6327 1.4055 1.27345 11.7394 -32.2015 9.12274 0.675628 3.21753 6.29949 -1.6049 3.23158 -4.17003 -2.12139 -0.925387 
-140.956 95.467 -195.488 85.6659 -49.8362 86.7701 -174.502 6.66851 85.9609 -19.757 13.4042 0.21075 72.8355 12.958 5.42905 29.2492 0.0868894 2.98413 178.714 15.5232 93.1732 -30.5498 -4.96657 -4.39202 68.3567 -4.38471 -2.33678 41.0858 0.351112 -6.07605 -0.141688 7.13269 -90.0372 12.6089 -0.299176 -0.0397364 0.938 -0.300616 -0.0265182 -21.5974 -0.273383 -0.127806 -1.58477 -0.273402 -0.127815 93.3338 -53.7335 -95.0815 22.4476 -5.88483 3.46438 -12.2965 -27.3573 -46.6587 -2.4032 -0.631915 3.0635 -104.295 -53.0311 59.1103 -17.1883 18.5873 0.585842 3.30144 12.0163 -36.9427 6.8261 0.441247 2.23527 5.31932 -0.899689 1.81395 -3.13623 -1.17459 0.205833 
-139.49 95.2964 -194.491 83.07 -50.3141 84.5984 -174.181 6.42687 85.755 -18.1686 12.7522 -0.368549 73.139 13.0514 4.78811 27.8381 -0.497803 -2.19054 178.829 23.4609 93.1906 -39.4628 -3.26964 -3.65445 67.1901 -3.9291 -2.14766 44.3645 0.149458 -8.75769 -0.108202 7.08292 -89.997 12.7076 -0.213404 0.0319151 1.0367 -0.211768 0.0412829 -21.4986 -0.21312 -0.0336927 -1.48598 -0.213123 -0.033694 93.1494 -53.5487 -95.3835 22.7031 -6.38781 4.33155 -9.87604 -24.701 -45.9868 -2.79019 -0.650048 4.55247 -104.164 -52.8301 59.2089 -15.6158 17.6919 -0.393736 4.30823 8.86802 -42.7997 6.9413 0.490973 2.75171 5.00745 -0.189868 1.36425 -2.41026 -0.390661 0.622653 
-137.617 95.3605 -192.873 82.8301 -48.3894 85.4477 -174.095 4.77156 86.6187 -17.0383 15.6734 0.00992635 72.3325 12.7739 5.75971 30.6604 1.70143 -2.98598 177.881 27.2598 94.0014 -35.4295 -1.39528 -2.23169 68.683 -4.11913 -2.19393 42.4591 0.319191 -6.59899 -0.38071 7.24349 -90.1747 12.3862 -0.839487 -0.253267 0.715495 -0.849803 -0.216078 -21.8212 -0.724573 -0.493865 -1.80853 -0.724555 -0.493873 93.056 -53.1339 -95.59 22.8735 -6.24266 5.3669 -11.2268 -26.4185 -45.8842 -2.60817 -0.651726 3.99973 -104.376 -51.9273 58.5464 -13.5445 16.5125 -3.89291 5.0411 7.57322 -45.5769 7.05689 0.441102 2.06946 5.69964 0.548197 1.32034 -1.5512 0.359841 1.52429 
-135.451 94.8517 -190.408 82.777 -47.8805 85.6338 -173.704 2.44993 87.0699 -16.6052 16.2381 0.0789295 73.5318 14.1946 6.2736 33.32 3.56932 0.175414 177.645 30.2068 94.1473 -27.4601 -2.50052 -1.54791 68.2961 -3.78695 -2.02142 41.2704 0.2362 -8.78735 -0.488508 7.46749 -90.2234 11.9377 -1.07662 -0.329401 0.267123 -1.09006 -0.281698 -22.2705 -0.927827 -0.637758 -2.25786 -0.92784 -0.637761 92.841 -54.2603 -95.7206 21.578 -5.89287 6.17907 -10.4886 -26.8166 -44.4682 -2.91218 -0.666499 3.93737 -104.384 -51.0053 58.1518 -10.2501 15.864 -8.2226 3.79944 5.37877 -47.1679 6.48689 0.415566 2.15889 6.50982 0.869814 0.225024 0.0723264 0.912489 2.65049 
-132.412 93.709 -186.819 82.6673 -46.8891 85.6037 -173.659 0.585614 87.2241 -18.8913 17.523 0.57747 74.5788 15.9252 8.4115 35.2423 5.09414 -1.08577 177.972 32.3501 93.953 -21.399 0.44783 -1.36145 68.7071 -4.02328 -2.14651 42.6431 0.337981 -6.20933 -0.63379 7.59879 -90.2769 11.6741 -1.3904 -0.406494 0.0038769 -1.40694 -0.344897 -22.5355 -1.20396 -0.805627 -2.52287 -1.20395 -0.805623 93.256 -54.807 -95.0268 21.1599 -5.18409 6.52827 -8.87182 -27.0944 -41.396 -1.23597 -0.588595 4.82718 -104.888 -50.6156 57.2777 -8.11139 15.4253 -10.4003 3.30993 5.14353 -46.9883 8.03914 0.450349 1.57089 6.26711 0.998286 -0.370065 1.32918 1.20488 3.4174 
-128.359 92.577 -181.647 83.3058 -45.5405 86.4253 -174.005 -1.26371 88.1479 -24.1018 22.5382 1.95161 71.2568 14.2932 12.5305 42.8025 10.7509 -2.326 178.613 32.6541 93.8917 -22.3857 -1.02498 -1.94051 68.7304 -4.17268 -2.22161 43.5852 0.276558 -7.10297 -0.836385 7.67303 -90.3618 11.5238 -1.83306 -0.533194 -0.14592 -1.85473 -0.451979 -22.6884 -1.58807 -1.05956 -2.67575 -1.58806 -1.05956 93.3916 -55.6605 -94.6975 20.1971 -4.63964 6.68658 -6.90428 -27.8053 -38.3313 -0.0153531 -0.528806 5.42232 -105.56 -50.4021 56.2408 -8.24141 15.5456 -10.0974 2.59876 6.22917 -43.5123 9.23918 0.485939 1.32809 6.59105 1.1338 -0.997547 1.52306 1.49253 4.26627 
-123.137 91.9869 -174.742 84.1097 -43.6942 88.7646 -174.834 -1.20452 91.2759 -33.9577 25.2712 4.37961 64.8503 7.09489 7.20823 53.7875 19.5578 0.348348 178.431 32.2158 95.7269 -30.9964 0.99771 -1.70963 66.0761 -2.78187 -1.50698 41.8054 0.273529 -7.62412 -1.06345 7.64903 -90.6301 11.5658 -2.41041 -1.00725 -0.10323 -2.45241 -0.900144 -22.6485 -1.99627 -1.68527 -2.63583 -1.99626 -1.68526 93.075 -55.5991 -95.1643 20.4099 -4.35216 7.80028 -8.29521 -30.1397 -37.3868 -0.420434 -0.600814 5.43741 -105.936 -50.9392 55.9488 -10.3107 17.002 -8.24397 1.72721 10.0192 -36.9909 12.6562 0.900178 3.13014 7.72473 1.55287 -0.370825 0.014787 1.74627 4.32258 
-118.325 91.3342 -167.57 86.3325 -45.4062 89.7925 -174.884 4.78446 94.0768 -50.878 22.8507 3.29751 50.1799 -5.25574 -3.43696 51.7017 19.1795 6.0091 177.341 29.8503 96.8725 -40.0648 0.277106 -0.91847 70.3671 -4.40691 -2.27714 35.7588 0.367637 -1.87591 -0.913778 7.62923 -90.5128 11.6082 -2.05782 -0.808558 -0.0613587 -2.09141 -0.717184 -22.6042 -1.71968 -1.38974 -2.59154 -1.7197 -1.38975 92.5549 -55.1879 -95.9833 21.3381 -4.11049 7.78001 -10.005 -31.7053 -38.103 1.10696 -0.545193 5.64644 -106.684 -51.4564 55.1371 -14.3559 17.5477 -3.1417 0.74569 13.1819 -30.4803 11.2108 0.832994 3.45007 6.16037 1.49237 -0.0448979 -0.0786158 1.61026 3.83995 
-113.942 92.0957 -161.002 87.7061 -46.2265 90.4277 -174.442 17.3711 93.6885 -64.596 17.9621 1.99254 47.1234 -6.72879 -2.02475 41.2858 10.9819 14.0318 177.65 23.2832 97.6656 -39.9649 0.959033 -1.32966 75.1245 -5.98606 -2.85306 32.187 0.157886 0.44755 -0.566623 7.69792 -90.3642 11.4769 -1.29761 -0.592779 -0.193534 -1.32243 -0.535091 -22.7316 -1.05947 -0.955383 -2.71894 -1.05945 -0.955377 92.2803 -54.5271 -96.4965 22.7586 -4.72945 5.85148 -11.0121 -29.3075 -41.3628 -0.47688 -0.598471 5.20262 -106.757 -52.2874 55.4029 -16.7469 17.4958 1.20083 0.95749 14.6879 -28.9175 10.9436 1.04983 5.31642 6.05184 0.401012 0.473759 -0.322552 0.398899 2.55444 
